<svg width="24" height="24" viewBox="0 0 24 24" fill="none" xmlns="http://www.w3.org/2000/svg">
<g clip-path="url(#clip0_105_5089)">
<g clip-path="url(#clip1_105_5089)">
<path d="M22.4344 12C22.4344 17.7625 17.7625 22.4344 12 22.4344C6.23753 22.4344 1.56555 17.7625 1.56555 12C1.56555 6.23753 6.23753 1.56555 12 1.56555C17.7625 1.56555 22.4344 6.23753 22.4344 12Z" fill="white"/>
<path d="M23.9189 13.4013C24.6921 6.81918 19.983 0.856465 13.4009 0.0832396C6.81873 -0.689986 0.856014 4.01908 0.0827881 10.6012C-0.690438 17.1834 4.01863 23.1461 10.6008 23.9193C17.1829 24.6926 23.1457 19.9835 23.9189 13.4013Z" fill="white"/>
<path d="M22.4344 12C22.4344 17.7625 17.7625 22.4344 12 22.4344C6.23753 22.4344 1.56555 17.7625 1.56555 12C1.56555 6.23753 6.23753 1.56555 12 1.56555C17.7625 1.56555 22.4344 6.23753 22.4344 12Z" fill="#DAE000"/>
<path d="M9.54443 9.1774C9.75112 9.22367 9.95163 9.33472 10.0997 9.47663C10.3187 9.69102 10.5038 10.254 10.328 10.5455C10.0781 10.9543 9.46885 11.0622 9.06937 10.8016C8.62669 10.5116 8.51101 9.96866 8.74083 9.50902C8.90433 9.18357 9.22978 9.10645 9.54443 9.17585V9.1774Z" fill="#231815"/>
<path d="M15.1912 9.1774C15.3978 9.22367 15.5984 9.33472 15.7464 9.47663C15.9655 9.69102 16.1505 10.254 15.9747 10.5455C15.7248 10.9543 15.1156 11.0622 14.7161 10.8016C14.2734 10.5116 14.1577 9.96866 14.3876 9.50902C14.5511 9.18357 14.8765 9.10645 15.1912 9.17585V9.1774Z" fill="#231815"/>
<path d="M15.0339 15.307C14.4247 13.5887 13.2879 12.4304 11.983 12.4304C10.6781 12.4304 9.54138 13.5872 8.93213 15.307" stroke="#231815" stroke-width="1.07352" stroke-linecap="round" stroke-linejoin="round"/>
<path d="M7.11211 4.48071C6.5044 4.84627 5.95067 5.29357 5.4679 5.80719" stroke="white" stroke-width="1.02262" stroke-linecap="round" stroke-linejoin="round"/>
</g>
</g>
<defs>
<clipPath id="clip0_105_5089">
<rect width="24" height="24" fill="white"/>
</clipPath>
<clipPath id="clip1_105_5089">
<rect width="24" height="24" fill="white"/>
</clipPath>
</defs>
</svg>
