<svg width="24" height="24" viewBox="0 0 24 24" fill="none" xmlns="http://www.w3.org/2000/svg">
<g clip-path="url(#clip0_420_11621)">
<g clip-path="url(#clip1_420_11621)">
<path d="M22.4344 12C22.4344 17.7625 17.7625 22.4344 12 22.4344C6.23753 22.4344 1.56555 17.7625 1.56555 12C1.56555 6.23753 6.23753 1.56555 12 1.56555C17.7625 1.56555 22.4344 6.23753 22.4344 12Z" fill="white"/>
<path d="M24 12C24 18.6278 18.6278 24 12 24C5.37224 24 0 18.6278 0 12C0 5.37224 5.37224 0 12 0C18.6278 0 24 5.37224 24 12Z" fill="white"/>
<path d="M22.4344 12C22.4344 17.7625 17.7625 22.4344 12 22.4344C6.23753 22.4344 1.56555 17.7625 1.56555 12C1.56555 6.23753 6.23753 1.56555 12 1.56555C17.7625 1.56555 22.4344 6.23753 22.4344 12Z" fill="#FFF100"/>
<path d="M16.7584 8.23342C16.3512 8.07147 15.8916 8.46324 15.6 8.79024C15.327 8.47404 14.8859 8.09923 14.471 8.27507C13.9296 8.50643 13.6473 9.14653 13.8432 9.70489C13.8509 9.72648 13.8617 9.74962 13.8725 9.77121C14.1193 10.3188 15.0571 10.9851 15.0571 10.9851C15.0895 11.0082 15.125 11.0283 15.1635 11.0468C15.3887 11.1517 15.6864 11.1486 15.9101 11.0406C15.944 11.0237 15.9779 11.0051 16.0072 10.9836C16.0072 10.9836 16.999 10.271 17.2782 9.71106C17.2905 9.68638 17.3029 9.66324 17.3106 9.64165C17.5358 9.07404 17.289 8.44319 16.7599 8.23342H16.7584Z" fill="#E83828"/>
<path d="M7.11211 4.48071C6.5044 4.84627 5.95067 5.29357 5.4679 5.80719" stroke="white" stroke-width="1.02262" stroke-linecap="round" stroke-linejoin="round"/>
<path d="M10.4391 7.87091C9.98099 7.68891 9.46428 8.13004 9.13574 8.49714C8.8288 8.14084 8.33215 7.71821 7.86634 7.91719C7.25708 8.17631 6.94089 8.89816 7.15991 9.52593C7.16762 9.55061 7.17996 9.57528 7.1923 9.60151C7.46994 10.2185 8.52341 10.9681 8.52341 10.9681C8.56042 10.9943 8.60053 11.0174 8.64217 11.0375C8.89667 11.1563 9.22983 11.1532 9.48125 11.0298C9.51981 11.0113 9.55682 10.9897 9.59076 10.965C9.59076 10.965 10.7059 10.1629 11.0206 9.53364C11.0345 9.50742 11.0483 9.4812 11.0576 9.45498C11.3121 8.81642 11.0329 8.1069 10.4375 7.86937L10.4391 7.87091Z" fill="#E83828"/>
<path d="M7.20613 12.384C7.20613 15.1264 9.34701 17.3506 11.9876 17.3506C14.6282 17.3506 16.7691 15.1264 16.7691 12.384H7.20459H7.20613Z" fill="#231815" stroke="#231815" stroke-width="1.07352" stroke-linecap="round" stroke-linejoin="round"/>
<path d="M7.80155 13.9958C7.65348 13.5809 7.56556 13.1475 7.53625 12.7048H16.4391C16.4098 13.149 16.3219 13.5809 16.1738 13.9958H7.80001H7.80155Z" fill="white"/>
</g>
</g>
<defs>
<clipPath id="clip0_420_11621">
<rect width="24" height="24" fill="white"/>
</clipPath>
<clipPath id="clip1_420_11621">
<rect width="24" height="24" fill="white"/>
</clipPath>
</defs>
</svg>
