<svg width="24" height="24" viewBox="0 0 24 24" fill="none" xmlns="http://www.w3.org/2000/svg">
<path d="M7.24295 16.1429H4.81438V19.7857H7.24295V16.1429ZM13.3144 11.2857H10.8858V19.7857H13.3144V11.2857ZM19.3858 5.21429V19.7857H16.9572V5.21429H19.3858ZM16.9572 4C16.6352 4 16.3263 4.12793 16.0986 4.35566C15.8709 4.58338 15.743 4.89224 15.743 5.21429V19.7857C15.743 20.1078 15.8709 20.4166 16.0986 20.6443C16.3263 20.8721 16.6352 21 16.9572 21H19.3858C19.7079 21 20.0167 20.8721 20.2444 20.6443C20.4722 20.4166 20.6001 20.1078 20.6001 19.7857V5.21429C20.6001 4.89224 20.4722 4.58338 20.2444 4.35566C20.0167 4.12793 19.7079 4 19.3858 4H16.9572ZM9.67153 11.2857C9.67153 10.9637 9.79946 10.6548 10.0272 10.4271C10.2549 10.1994 10.5638 10.0714 10.8858 10.0714H13.3144C13.6364 10.0714 13.9453 10.1994 14.173 10.4271C14.4007 10.6548 14.5287 10.9637 14.5287 11.2857V19.7857C14.5287 20.1078 14.4007 20.4166 14.173 20.6443C13.9453 20.8721 13.6364 21 13.3144 21H10.8858C10.5638 21 10.2549 20.8721 10.0272 20.6443C9.79946 20.4166 9.67153 20.1078 9.67153 19.7857V11.2857ZM3.6001 16.1429C3.6001 15.8208 3.72803 15.512 3.95575 15.2842C4.18348 15.0565 4.49233 14.9286 4.81438 14.9286H7.24295C7.565 14.9286 7.87386 15.0565 8.10158 15.2842C8.32931 15.512 8.45724 15.8208 8.45724 16.1429V19.7857C8.45724 20.1078 8.32931 20.4166 8.10158 20.6443C7.87386 20.8721 7.565 21 7.24295 21H4.81438C4.49233 21 4.18348 20.8721 3.95575 20.6443C3.72803 20.4166 3.6001 20.1078 3.6001 19.7857V16.1429Z" fill="#BDBDBD"/>
</svg>
