<svg width="24" height="24" viewBox="0 0 24 24" fill="none" xmlns="http://www.w3.org/2000/svg">
<path d="M16.9571 4C16.6351 4 16.3262 4.12793 16.0985 4.35566C15.8708 4.58338 15.7428 4.89224 15.7428 5.21429V19.7857C15.7428 20.1078 15.8708 20.4166 16.0985 20.6443C16.3262 20.8721 16.6351 21 16.9571 21H19.3857C19.7077 21 20.0166 20.8721 20.2443 20.6443C20.472 20.4166 20.6 20.1078 20.6 19.7857V5.21429C20.6 4.89224 20.472 4.58338 20.2443 4.35566C20.0166 4.12793 19.7077 4 19.3857 4H16.9571ZM9.6714 11.2857C9.6714 10.9637 9.79934 10.6548 10.0271 10.4271C10.2548 10.1994 10.5636 10.0714 10.8857 10.0714H13.3143C13.6363 10.0714 13.9452 10.1994 14.1729 10.4271C14.4006 10.6548 14.5285 10.9637 14.5285 11.2857V19.7857C14.5285 20.1078 14.4006 20.4166 14.1729 20.6443C13.9452 20.8721 13.6363 21 13.3143 21H10.8857C10.5636 21 10.2548 20.8721 10.0271 20.6443C9.79934 20.4166 9.6714 20.1078 9.6714 19.7857V11.2857ZM3.59998 16.1429C3.59998 15.8208 3.72791 15.512 3.95563 15.2842C4.18335 15.0565 4.49221 14.9286 4.81426 14.9286H7.24283C7.56488 14.9286 7.87374 15.0565 8.10146 15.2842C8.32919 15.512 8.45712 15.8208 8.45712 16.1429V19.7857C8.45712 20.1078 8.32919 20.4166 8.10146 20.6443C7.87374 20.8721 7.56488 21 7.24283 21H4.81426C4.49221 21 4.18335 20.8721 3.95563 20.6443C3.72791 20.4166 3.59998 20.1078 3.59998 19.7857V16.1429Z" fill="#26C1D6"/>
</svg>
