<svg width="24" height="24" viewBox="0 0 24 24" fill="none" xmlns="http://www.w3.org/2000/svg">
<path d="M12.3758 4.99403C12.2344 4.87373 12.0548 4.80768 11.8692 4.80768C11.6835 4.80768 11.504 4.87373 11.3626 4.99403L5.26449 10.1777C5.17815 10.2512 5.10881 10.3425 5.06129 10.4454C5.01377 10.5484 4.98921 10.6604 4.98929 10.7738V18.8789C4.98929 18.9618 5.02224 19.0414 5.08089 19.1C5.13953 19.1587 5.21907 19.1916 5.30201 19.1916H8.42923C8.51217 19.1916 8.59171 19.1587 8.65036 19.1C8.70901 19.0414 8.74196 18.9618 8.74196 18.8789V14.5008C8.74196 14.0861 8.90669 13.6884 9.19993 13.3951C9.49316 13.1019 9.89087 12.9372 10.3056 12.9372H13.1201C13.3254 12.9372 13.5287 12.9776 13.7184 13.0562C13.9081 13.1348 14.0805 13.2499 14.2257 13.3951C14.3709 13.5403 14.4861 13.7127 14.5646 13.9024C14.6432 14.0921 14.6837 14.2954 14.6837 14.5008V18.8789C14.6837 18.9618 14.7166 19.0414 14.7753 19.1C14.8339 19.1587 14.9135 19.1916 14.9964 19.1916H18.4363C18.5193 19.1916 18.5988 19.1587 18.6575 19.1C18.7161 19.0414 18.7491 18.9618 18.7491 18.8789V10.7731C18.7491 10.6599 18.7244 10.548 18.6769 10.4452C18.6294 10.3424 18.5601 10.2511 18.4739 10.1777L12.3758 4.99465V4.99403ZM10.5526 4.04148C10.9201 3.72904 11.3868 3.5575 11.8692 3.5575C12.3516 3.5575 12.8182 3.72904 13.1857 4.04148L19.2838 9.22453C19.5083 9.41534 19.6886 9.65266 19.8122 9.92006C19.9359 10.1875 19.9999 10.4785 19.9999 10.7731V18.8789C19.9999 19.2936 19.8352 19.6913 19.542 19.9845C19.2487 20.2778 18.851 20.4425 18.4363 20.4425H14.9964C14.5817 20.4425 14.184 20.2778 13.8908 19.9845C13.5975 19.6913 13.4328 19.2936 13.4328 18.8789V14.5008C13.4328 14.4178 13.3998 14.3383 13.3412 14.2796C13.2825 14.221 13.203 14.1881 13.1201 14.1881H10.3056C10.2226 14.1881 10.1431 14.221 10.0844 14.2796C10.0258 14.3383 9.99284 14.4178 9.99284 14.5008V18.8789C9.99284 19.2936 9.82811 19.6913 9.53487 19.9845C9.24164 20.2778 8.84393 20.4425 8.42923 20.4425H5.30201C4.88732 20.4425 4.48961 20.2778 4.19637 19.9845C3.90314 19.6913 3.7384 19.2936 3.7384 18.8789V10.7731C3.73842 10.4785 3.80247 10.1875 3.92613 9.92006C4.04978 9.65266 4.23008 9.41534 4.45454 9.22453L10.5526 4.04148Z" fill="#BDBDBD"/>
</svg>
