<svg width="25" height="24" viewBox="0 0 25 24" fill="none" xmlns="http://www.w3.org/2000/svg">
<path d="M10.886 4.0416C11.2535 3.72916 11.7202 3.55762 12.2025 3.55762C12.6849 3.55762 13.1516 3.72916 13.5191 4.0416L19.6172 9.22465C19.8416 9.41546 20.0219 9.65278 20.1456 9.92018C20.2693 10.1876 20.3333 10.4786 20.3333 10.7733V18.879C20.3333 19.2937 20.1686 19.6914 19.8753 19.9846C19.5821 20.2779 19.1844 20.4426 18.7697 20.4426H15.3298C14.9151 20.4426 14.5174 20.2779 14.2241 19.9846C13.9309 19.6914 13.7662 19.2937 13.7662 18.879V14.5009C13.7662 14.418 13.7332 14.3384 13.6746 14.2798C13.6159 14.2211 13.5364 14.1882 13.4534 14.1882H10.6389C10.556 14.1882 10.4765 14.2211 10.4178 14.2798C10.3592 14.3384 10.3262 14.418 10.3262 14.5009V18.879C10.3262 19.2937 10.1615 19.6914 9.86825 19.9846C9.57501 20.2779 9.1773 20.4426 8.76261 20.4426H5.63539C5.22069 20.4426 4.82298 20.2779 4.52975 19.9846C4.23651 19.6914 4.07178 19.2937 4.07178 18.879V10.7733C4.07179 10.4786 4.13585 10.1876 4.2595 9.92018C4.38315 9.65278 4.56345 9.41546 4.78791 9.22465L10.886 4.0416Z" fill="#26C1D6"/>
</svg>
