<svg width="24" height="24" viewBox="0 0 24 24" fill="none" xmlns="http://www.w3.org/2000/svg">
<g clip-path="url(#clip0_855_7633)">
<path d="M12 21C16.9706 21 21 16.9706 21 12C21 7.02944 16.9706 3 12 3C7.02944 3 3 7.02944 3 12C3 16.9706 7.02944 21 12 21Z" fill="#26C1D6"/>
<path d="M11.9999 6.97C11.3899 6.97 10.7899 7.15 10.2799 7.49C9.76992 7.83 9.36992 8.32 9.13992 8.88C8.90992 9.45 8.83992 10.07 8.95992 10.67C9.07992 11.27 9.37992 11.82 9.80992 12.26C10.2399 12.69 10.7999 12.99 11.3999 13.11C11.9999 13.23 12.6299 13.17 13.1899 12.93C13.7599 12.7 14.2399 12.3 14.5799 11.79C14.9199 11.28 15.0999 10.68 15.0999 10.07C15.0999 9.25 14.7699 8.46 14.1899 7.88C13.6099 7.3 12.8199 6.97 11.9999 6.97Z" fill="white"/>
<path d="M15.8601 18.67C14.6901 19.35 13.3601 19.71 12.0001 19.71C10.6401 19.71 9.31011 19.35 8.14011 18.67C7.59011 18.35 6.86011 17.74 6.86011 17.74C6.87011 16.9 7.22011 16.09 7.82011 15.5C8.42011 14.91 9.23011 14.57 10.0701 14.57H13.9301C14.7701 14.57 15.5801 14.9 16.1801 15.5C16.7801 16.09 17.1201 16.9 17.1401 17.74C16.7501 18.11 15.8601 18.67 15.8601 18.67Z" fill="white"/>
</g>
<defs>
<clipPath id="clip0_855_7633">
<rect width="18" height="18" fill="white" transform="translate(3 3)"/>
</clipPath>
</defs>
</svg>
