<svg width="25" height="24" viewBox="0 0 25 24" fill="none" xmlns="http://www.w3.org/2000/svg">
<path d="M12.667 6C11.9253 6 11.2003 6.21993 10.5836 6.63199C9.96692 7.04404 9.48627 7.62971 9.20245 8.31494C8.91862 9.00016 8.84435 9.75416 8.98905 10.4816C9.13374 11.209 9.4909 11.8772 10.0153 12.4017C10.5398 12.9261 11.208 13.2833 11.9354 13.4279C12.6628 13.5726 13.4168 13.4984 14.1021 13.2145C14.7873 12.9307 15.373 12.4501 15.785 11.8334C16.1971 11.2167 16.417 10.4917 16.417 9.75C16.417 8.75544 16.0219 7.80161 15.3186 7.09835C14.6154 6.39509 13.6616 6 12.667 6ZM12.667 12C12.222 12 11.787 11.868 11.417 11.6208C11.047 11.3736 10.7586 11.0222 10.5883 10.611C10.418 10.1999 10.3734 9.7475 10.4602 9.31105C10.547 8.87459 10.7613 8.47368 11.076 8.15901C11.3907 7.84434 11.7916 7.63005 12.228 7.54323C12.6645 7.45642 13.1169 7.50097 13.528 7.67127C13.9392 7.84157 14.2906 8.12996 14.5378 8.49997C14.785 8.86998 14.917 9.30499 14.917 9.75C14.9164 10.3466 14.6792 10.9185 14.2573 11.3403C13.8355 11.7622 13.2635 11.9994 12.667 12Z" fill="#BDBDBD"/>
<path d="M12.667 1.5C10.5903 1.5 8.56023 2.11581 6.83351 3.26957C5.10679 4.42332 3.76098 6.0632 2.96626 7.98182C2.17154 9.90045 1.96361 12.0116 2.36875 14.0484C2.7739 16.0852 3.77392 17.9562 5.24238 19.4246C6.71083 20.8931 8.58175 21.8931 10.6185 22.2982C12.6553 22.7034 14.7665 22.4955 16.6852 21.7007C18.6038 20.906 20.2437 19.5602 21.3974 17.8335C22.5512 16.1068 23.167 14.0767 23.167 12C23.1638 9.2162 22.0566 6.54733 20.0881 4.57889C18.1197 2.61044 15.4508 1.50318 12.667 1.5ZM8.167 19.7828V18.75C8.16759 18.1534 8.40484 17.5815 8.82666 17.1597C9.24849 16.7378 9.82044 16.5006 10.417 16.5H14.917C15.5136 16.5006 16.0855 16.7378 16.5073 17.1597C16.9292 17.5815 17.1664 18.1534 17.167 18.75V19.7828C15.8014 20.5802 14.2484 21.0004 12.667 21.0004C11.0856 21.0004 9.53262 20.5802 8.167 19.7828ZM18.661 18.6945C18.646 17.7107 18.2452 16.7722 17.5449 16.0812C16.8446 15.3901 15.9009 15.0019 14.917 15H10.417C9.43313 15.0019 8.48938 15.3901 7.78906 16.0812C7.08875 16.7722 6.68794 17.7107 6.673 18.6945C5.31292 17.4801 4.35379 15.8812 3.92262 14.1095C3.49145 12.3378 3.60857 10.477 4.25848 8.77339C4.90838 7.06978 6.06041 5.60375 7.56203 4.56942C9.06364 3.5351 10.844 2.98127 12.6674 2.98127C14.4907 2.98127 16.2711 3.5351 17.7727 4.56942C19.2743 5.60375 20.4264 7.06978 21.0763 8.77339C21.7262 10.477 21.8433 12.3378 21.4121 14.1095C20.9809 15.8812 20.0218 17.4801 18.6617 18.6945H18.661Z" fill="#BDBDBD"/>
</svg>
