<svg width="24" height="24" viewBox="0 0 24 24" fill="none" xmlns="http://www.w3.org/2000/svg">
<g clip-path="url(#clip0_139_1147)">
<path d="M20.88 16.01C20.32 15.07 19.66 13.29 19.66 10.14V9.47999C19.66 5.32999 16.25 1.92999 12.06 1.89999H12C10.99 1.89999 10 2.08999 9.07002 2.46999C8.14002 2.84999 7.30002 3.39999 6.58002 4.09999C5.86002 4.79999 5.31002 5.61999 4.92002 6.52999C4.53002 7.44999 4.34002 8.40999 4.34002 9.39999V10.14C4.34002 13.29 3.68002 15.07 3.12002 16C2.98002 16.25 2.90002 16.53 2.90002 16.81C2.90002 17.09 2.97002 17.36 3.11002 17.61C3.25002 17.85 3.46002 18.05 3.70002 18.19C3.95002 18.33 4.22002 18.4 4.51002 18.4H8.11002C8.14002 19.37 8.55002 20.31 9.25002 20.99C9.99002 21.71 10.96 22.1 12 22.1C13.04 22.1 14.02 21.7 14.75 20.99C15.46 20.3 15.86 19.38 15.89 18.4H19.5C19.78 18.4 20.05 18.33 20.3 18.19C20.55 18.05 20.75 17.85 20.89 17.61C21.03 17.37 21.1 17.09 21.1 16.81C21.1 16.53 21.02 16.26 20.88 16.02V16.01ZM12 20.42C11.42 20.42 10.87 20.19 10.46 19.8C10.07 19.42 9.85002 18.93 9.82002 18.4H14.16C14.13 18.93 13.91 19.42 13.52 19.8C13.11 20.2 12.57 20.42 11.99 20.42H12ZM12 3.57999H12.05C15.3 3.59999 17.95 6.24999 17.95 9.48999V10.15C17.95 13.51 18.67 15.56 19.32 16.72H4.69002C5.33002 15.56 6.06002 13.51 6.06002 10.15V9.40999C6.06002 8.63999 6.21002 7.88999 6.51002 7.17999C6.81002 6.46999 7.24002 5.82999 7.80002 5.28999C8.36002 4.74999 9.01002 4.31999 9.73002 4.02999C10.46 3.73999 11.22 3.58999 12.01 3.58999L12 3.57999Z" fill="#111111"/>
</g>
<defs>
<clipPath id="clip0_139_1147">
<rect width="24" height="24" fill="white"/>
</clipPath>
</defs>
</svg>
