<svg width="24" height="25" viewBox="0 0 24 25" fill="none" xmlns="http://www.w3.org/2000/svg">
<path d="M20.7923 16.5648C20.2334 15.6204 19.5607 13.8241 19.5607 10.6481V9.99074C19.5607 5.88889 16.1974 2.52778 12.0573 2.5H12.0005C11.0064 2.50122 10.0223 2.69378 9.10438 3.06669C8.18645 3.43961 7.35267 3.98557 6.65064 4.67341C5.9486 5.36125 5.39207 6.1775 5.0128 7.07555C4.63354 7.9736 4.43897 8.93587 4.44022 9.90741V10.6481C4.44022 13.8241 3.76757 15.6204 3.2086 16.5648C3.07342 16.7899 3.00146 17.0458 3.00002 17.3068C2.99858 17.5678 3.0677 17.8245 3.20039 18.051C3.33309 18.2775 3.52463 18.4657 3.75566 18.5965C3.98668 18.7274 4.24898 18.7963 4.51601 18.7963H8.21087C8.21087 19.7786 8.61013 20.7206 9.32082 21.4152C10.0315 22.1098 10.9954 22.5 12.0005 22.5C13.0055 22.5 13.9694 22.1098 14.6801 21.4152C15.3908 20.7206 15.7901 19.7786 15.7901 18.7963H19.4849C19.7519 18.798 20.0145 18.7302 20.2459 18.6001C20.4773 18.4699 20.6692 18.282 20.8018 18.0556C20.9333 17.8278 21.0016 17.5704 21 17.309C20.9983 17.0475 20.9267 16.7909 20.7923 16.5648ZM12.0005 21.0185C11.3982 21.0161 10.8213 20.7812 10.3954 20.365C9.96956 19.9487 9.7292 19.3849 9.72671 18.7963H14.2742C14.2717 19.3849 14.0314 19.9487 13.6055 20.365C13.1796 20.7812 12.6027 21.0161 12.0005 21.0185ZM4.51601 17.3148C5.16972 16.2037 5.95606 14.1574 5.95606 10.6481V9.90741C5.95356 9.13008 6.10807 8.35991 6.41071 7.64105C6.71335 6.92219 7.15819 6.26878 7.71971 5.71826C8.28123 5.16775 8.94841 4.73095 9.68299 4.43292C10.4176 4.13489 11.2051 3.98148 12.0005 3.98148H12.0478C15.3543 4 18.0449 6.7037 18.0449 9.99074V10.6481C18.0449 14.1574 18.8312 16.2037 19.4849 17.3148H4.51601Z" fill="#111111"/>
<path d="M19.4846 18.8963C19.4845 18.8963 19.4844 18.8963 19.4843 18.8963L15.8887 18.8963C15.8626 19.8696 15.4556 20.7972 14.75 21.4867C14.0204 22.1998 13.0313 22.6 12.0005 22.6C10.9696 22.6 9.98053 22.1998 9.25092 21.4867C8.54536 20.7972 8.13836 19.8696 8.11221 18.8963H4.51602C4.23182 18.8963 3.95252 18.823 3.70637 18.6835C3.4602 18.5441 3.25582 18.3434 3.11411 18.1015C2.9724 17.8597 2.89848 17.5853 2.90002 17.3063C2.90156 17.0273 2.97845 16.7539 3.12271 16.5136C3.67083 15.5873 4.34022 13.8095 4.34022 10.6481L4.34022 9.90754C4.34022 9.9075 4.34022 9.90747 4.34022 9.90744V9.90741H4.44022L19.4846 18.8963ZM19.4846 18.8963H19.4849V18.7963L19.4846 18.8963ZM12.058 2.4V2.4L20.8784 16.5139C20.8784 16.5138 20.8783 16.5138 20.8783 16.5137C20.3302 15.5875 19.6607 13.8096 19.6607 10.6481V9.99074C19.6607 5.83317 16.2523 2.42814 12.058 2.4ZM6.05606 9.90741L6.05606 9.90709C6.05361 9.14324 6.20543 8.38637 6.50288 7.67986C6.80033 6.97333 7.23759 6.33097 7.78972 5.78967C8.34185 5.24836 8.99799 4.81875 9.72058 4.52558C10.4432 4.23241 11.2179 4.08148 12.0005 4.08148H12.0476C15.2991 4.09984 17.9449 6.75906 17.9449 9.99074V10.6481C17.9449 14.0215 18.6685 16.0571 19.3125 17.2148H4.68842C5.33247 16.0571 6.05606 14.0215 6.05606 10.6481L6.05606 9.90741ZM12.0005 20.9185C11.424 20.9161 10.8723 20.6912 10.4653 20.2934C10.0827 19.9195 9.85713 19.4212 9.82955 18.8963H14.1714C14.1438 19.4212 13.9183 19.9195 13.5356 20.2934C13.1286 20.6912 12.5769 20.9161 12.0005 20.9185Z" fill="#111111" stroke="#111111" stroke-width="0.2"/>
</svg>
