<svg width="140" height="177" viewBox="0 0 140 177" fill="none" xmlns="http://www.w3.org/2000/svg">
<g clip-path="url(#clip0_1036_2718)">
<path d="M103.135 15.4313C68.2999 14.1677 72.0424 45.9163 72.0424 45.9163C103.434 47.5464 103.135 15.4313 103.135 15.4313Z" fill="#26C1D6"/>
<path d="M98.6981 54.5681H41.3018C22.1348 54.5681 6.5968 70.105 6.5968 89.2707C6.5968 108.436 22.1348 123.973 41.3018 123.973H98.6981C117.865 123.973 133.403 108.436 133.403 89.2707C133.403 70.105 117.865 54.5681 98.6981 54.5681Z" fill="#FFAE4D"/>
<path d="M41.3018 64.2141C27.4845 64.2141 16.2425 75.4561 16.2425 89.2735C16.2425 103.091 27.4845 114.333 41.3018 114.333H70.0024V64.2141H41.3018Z" fill="#FFAE4D"/>
<path d="M98.698 64.2138H69.9974V114.328H98.698C112.515 114.328 123.757 103.086 123.757 89.2683C123.757 75.451 112.515 64.209 98.698 64.209V64.2138Z" fill="white"/>
</g>
<path d="M30.5122 163.993C30.5122 168.083 27.5707 170.911 23.0061 170.911C18.4415 170.911 15.5 168.083 15.5 163.993V155.634C15.5 151.543 18.4415 148.715 23.0061 148.715C27.5707 148.715 30.5122 151.539 30.5122 155.634V163.993ZM26.4524 156.073C26.4524 153.75 25.3036 152.305 23.0105 152.305C20.7173 152.305 19.5685 153.745 19.5685 156.073V163.549C19.5685 165.872 20.7173 167.317 23.0105 167.317C25.3036 167.317 26.4524 165.877 26.4524 163.549V156.078V156.073ZM33.3102 174.323V148.336H37.37V157.252H40.9033V161.138H37.37V174.323H33.3102Z" fill="#26C1D6"/>
<path d="M44.5193 169.911V149.455H58.8832V169.911H44.5193ZM54.819 153.045H48.5791V166.321H54.819V153.045ZM63.03 174.327V148.336H67.0898V174.327H63.03Z" fill="#26C1D6"/>
<path d="M72.1853 170.202V149.276H86.2533V152.866H76.2452V157.722H85.9879V161.256H76.2452V166.612H88.1636V170.202H72.181H72.1853ZM89.8171 174.323V148.336H93.8769V157.84H97.4102V161.726H93.8769V174.323H89.8171Z" fill="#26C1D6"/>
<path d="M100.761 162.757V149.159H115.508V162.757H100.761ZM103.084 174.088V164.906H107.144V170.498H124.01V174.088H103.084ZM111.443 152.688H104.821V159.223H111.443V152.688ZM119.332 166.934V154.646H123.392V166.934H119.332Z" fill="#26C1D6"/>
<path d="M126.5 145.408C118.684 145.12 119.527 152.386 119.527 152.386C126.567 152.761 126.5 145.408 126.5 145.408Z" fill="#26C1D6"/>
<defs>
<clipPath id="clip0_1036_2718">
<rect width="126.806" height="108.586" fill="white" transform="translate(6.59686 15.3926)"/>
</clipPath>
</defs>
</svg>
