<svg width="24" height="24" viewBox="0 0 24 24" fill="none" xmlns="http://www.w3.org/2000/svg">
<path d="M15.31 7.09375C15.4027 7.18626 15.4762 7.29615 15.5264 7.41713C15.5766 7.5381 15.6024 7.66778 15.6024 7.79875C15.6024 7.92972 15.5766 8.0594 15.5264 8.18037C15.4762 8.30135 15.4027 8.41124 15.31 8.50375L11.43 12.3837L15.31 16.2638C15.497 16.4507 15.602 16.7043 15.602 16.9687C15.602 17.2332 15.497 17.4868 15.31 17.6738C15.123 17.8607 14.8694 17.9658 14.605 17.9658C14.3405 17.9658 14.087 17.8607 13.9 17.6738L9.30997 13.0837C9.21727 12.9912 9.14372 12.8813 9.09354 12.7604C9.04336 12.6394 9.01753 12.5097 9.01753 12.3787C9.01753 12.2478 9.04336 12.1181 9.09354 11.9971C9.14372 11.8762 9.21727 11.7663 9.30997 11.6737L13.9 7.08375C14.28 6.70375 14.92 6.70375 15.31 7.09375Z" fill="#111111"/>
</svg>
