<svg width="24" height="24" viewBox="0 0 24 24" fill="none" xmlns="http://www.w3.org/2000/svg">
<path d="M9.31002 7.09375C9.21732 7.18626 9.14377 7.29615 9.09359 7.41713C9.04341 7.5381 9.01758 7.66778 9.01758 7.79875C9.01758 7.92972 9.04341 8.0594 9.09359 8.18037C9.14377 8.30135 9.21732 8.41124 9.31002 8.50375L13.19 12.3837L9.31002 16.2638C9.12304 16.4507 9.018 16.7043 9.018 16.9687C9.018 17.2332 9.12304 17.4868 9.31002 17.6738C9.497 17.8607 9.7506 17.9658 10.015 17.9658C10.2794 17.9658 10.533 17.8607 10.72 17.6738L15.31 13.0837C15.4027 12.9912 15.4763 12.8813 15.5265 12.7604C15.5766 12.6394 15.6025 12.5097 15.6025 12.3787C15.6025 12.2478 15.5766 12.1181 15.5265 11.9971C15.4763 11.8762 15.4027 11.7663 15.31 11.6737L10.72 7.08375C10.34 6.70375 9.70002 6.70375 9.31002 7.09375Z" fill="#111111"/>
</svg>
