<svg width="24" height="24" viewBox="0 0 24 24" fill="none" xmlns="http://www.w3.org/2000/svg">
<path d="M17.5993 14.9991C17.5068 15.0918 17.3969 15.1654 17.2759 15.2156C17.155 15.2657 17.0253 15.2916 16.8943 15.2916C16.7633 15.2916 16.6337 15.2657 16.5127 15.2156C16.3917 15.1654 16.2818 15.0918 16.1893 14.9991L12.3093 11.1191L8.4293 14.9991C8.24233 15.1861 7.98873 15.2911 7.72431 15.2911C7.45988 15.2911 7.20628 15.1861 7.0193 14.9991C6.83233 14.8121 6.72728 14.5585 6.72728 14.2941C6.72728 14.0297 6.83233 13.7761 7.0193 13.5891L11.6093 8.99912C11.7018 8.90642 11.8117 8.83287 11.9327 8.78269C12.0537 8.73251 12.1833 8.70668 12.3143 8.70668C12.4453 8.70668 12.575 8.73251 12.6959 8.78269C12.8169 8.83287 12.9268 8.90642 13.0193 8.99912L17.6093 13.5891C17.9893 13.9691 17.9893 14.6091 17.5993 14.9991Z" fill="#111111"/>
</svg>
