<svg width="24" height="24" viewBox="0 0 24 24" fill="none" xmlns="http://www.w3.org/2000/svg">
<path d="M17.5993 8.99917C17.5068 8.90647 17.3969 8.83292 17.2759 8.78274C17.155 8.73256 17.0253 8.70673 16.8943 8.70673C16.7633 8.70673 16.6337 8.73256 16.5127 8.78274C16.3917 8.83292 16.2818 8.90647 16.1893 8.99917L12.3093 12.8792L8.4293 8.99917C8.24233 8.81219 7.98873 8.70715 7.72431 8.70715C7.45988 8.70715 7.20628 8.81219 7.0193 8.99917C6.83233 9.18615 6.72728 9.43974 6.72728 9.70417C6.72728 9.9686 6.83233 10.2222 7.0193 10.4092L11.6093 14.9992C11.7018 15.0919 11.8117 15.1654 11.9327 15.2156C12.0537 15.2658 12.1833 15.2916 12.3143 15.2916C12.4453 15.2916 12.575 15.2658 12.6959 15.2156C12.8169 15.1654 12.9268 15.0919 13.0193 14.9992L17.6093 10.4092C17.9893 10.0292 17.9893 9.38917 17.5993 8.99917Z" fill="#111111"/>
</svg>
