<svg width="24" height="24" viewBox="0 0 24 24" fill="none" xmlns="http://www.w3.org/2000/svg">
<path d="M15.3101 7.09454C15.4028 7.18706 15.4763 7.29695 15.5265 7.41792C15.5767 7.53889 15.6025 7.66858 15.6025 7.79954C15.6025 7.93051 15.5767 8.06019 15.5265 8.18117C15.4763 8.30214 15.4028 8.41203 15.3101 8.50454L11.4301 12.3845L15.3101 16.2645C15.4971 16.4515 15.6021 16.7051 15.6021 16.9695C15.6021 17.234 15.4971 17.4876 15.3101 17.6745C15.1231 17.8615 14.8695 17.9666 14.6051 17.9666C14.3407 17.9666 14.0871 17.8615 13.9001 17.6745L9.31009 13.0845C9.21739 12.992 9.14384 12.8821 9.09366 12.7612C9.04348 12.6402 9.01765 12.5105 9.01765 12.3795C9.01765 12.2486 9.04348 12.1189 9.09366 11.9979C9.14384 11.8769 9.21739 11.7671 9.31009 11.6745L13.9001 7.08454C14.2801 6.70454 14.9201 6.70454 15.3101 7.09454Z" fill="#26C1D6"/>
</svg>
