<svg width="24" height="24" viewBox="0 0 24 24" fill="none" xmlns="http://www.w3.org/2000/svg">
<path d="M9.31002 7.09454C9.21732 7.18706 9.14377 7.29695 9.09359 7.41792C9.04341 7.53889 9.01758 7.66858 9.01758 7.79954C9.01758 7.93051 9.04341 8.06019 9.09359 8.18117C9.14377 8.30214 9.21732 8.41203 9.31002 8.50454L13.19 12.3845L9.31002 16.2645C9.12304 16.4515 9.018 16.7051 9.018 16.9695C9.018 17.234 9.12304 17.4876 9.31002 17.6745C9.497 17.8615 9.7506 17.9666 10.015 17.9666C10.2794 17.9666 10.533 17.8615 10.72 17.6745L15.31 13.0845C15.4027 12.992 15.4763 12.8821 15.5265 12.7612C15.5766 12.6402 15.6025 12.5105 15.6025 12.3795C15.6025 12.2486 15.5766 12.1189 15.5265 11.9979C15.4763 11.8769 15.4027 11.7671 15.31 11.6745L10.72 7.08454C10.34 6.70454 9.70002 6.70454 9.31002 7.09454Z" fill="#26C1D6"/>
</svg>
