<svg width="24" height="24" viewBox="0 0 24 24" fill="none" xmlns="http://www.w3.org/2000/svg">
<mask id="mask0_118_4324" style="mask-type:alpha" maskUnits="userSpaceOnUse" x="0" y="0" width="24" height="24">
<rect width="24" height="24" fill="#D9D9D9"/>
</mask>
<g mask="url(#mask0_118_4324)">
<path d="M20.0029 8.22206C19.614 8.61096 18.9841 8.61282 18.5929 8.22624L15.7655 5.43208C15.371 5.04225 15.3691 4.40586 15.7613 4.0137L16.45 3.325C16.8333 2.94167 17.3042 2.75 17.8625 2.75C18.4208 2.75 18.8917 2.94167 19.275 3.325L20.675 4.725C21.0583 5.10833 21.2583 5.57083 21.275 6.1125C21.2917 6.65417 21.1083 7.11667 20.725 7.5L20.0029 8.22206ZM17.1429 9.69289C17.5334 10.0834 17.5334 10.7166 17.1429 11.1071L7.54289 20.7071C7.35536 20.8946 7.101 21 6.83579 21H4C3.44772 21 3 20.5523 3 20V17.1642C3 16.899 3.10536 16.6446 3.29289 16.4571L12.8929 6.85711C13.2834 6.46658 13.9166 6.46658 14.3071 6.85711L17.1429 9.69289Z" fill="#9E9E9E"/>
</g>
</svg>
