<svg width="24" height="24" viewBox="0 0 24 24" fill="none" xmlns="http://www.w3.org/2000/svg">
<g clip-path="url(#clip0_5_1514)">
<path d="M8.7779 13.9273L13.937 8.77581C14.1118 8.63031 14.3347 8.55539 14.5619 8.56576C14.7891 8.57613 15.0042 8.67104 15.165 8.83186C15.3258 8.99268 15.4207 9.2078 15.4311 9.435C15.4415 9.6622 15.3665 9.88508 15.221 10.0599L10.062 15.219C9.89121 15.3883 9.66044 15.4833 9.41994 15.4833C9.17943 15.4833 8.94867 15.3883 8.7779 15.219C8.6929 15.1342 8.62546 15.0336 8.57944 14.9228C8.53342 14.8119 8.50973 14.6931 8.50973 14.5731C8.50973 14.4531 8.53342 14.3343 8.57944 14.2235C8.62546 14.1126 8.6929 14.012 8.7779 13.9273ZM12.6453 15.219L10.4951 17.3692C9.97855 17.864 9.28875 18.1369 8.5735 18.1292C7.85824 18.1215 7.17445 17.834 6.66866 17.3282C6.16287 16.8224 5.87533 16.1386 5.86766 15.4234C5.86 14.7081 6.13282 14.0183 6.62766 13.5018L8.7779 11.3515C8.86291 11.2668 8.93035 11.1662 8.97637 11.0554C9.02239 10.9445 9.04607 10.8257 9.04607 10.7057C9.04607 10.5857 9.02239 10.4669 8.97637 10.3561C8.93035 10.2452 8.86291 10.1446 8.7779 10.0599C8.60491 9.89186 8.37324 9.79787 8.13207 9.79787C7.89091 9.79787 7.65923 9.89186 7.48624 10.0599L5.33599 12.2101C4.48057 13.0655 4 14.2257 4 15.4355C4 16.6452 4.48057 17.8054 5.33599 18.6609C6.19141 19.5163 7.35161 19.9969 8.56136 19.9969C9.77111 19.9969 10.9313 19.5163 11.7867 18.6609L13.9294 16.5106C14.0144 16.4259 14.0818 16.3253 14.1278 16.2144C14.1739 16.1036 14.1975 15.9848 14.1975 15.8648C14.1975 15.7448 14.1739 15.626 14.1278 15.5151C14.0818 15.4043 14.0144 15.3037 13.9294 15.219C13.8453 15.1342 13.7453 15.0669 13.6351 15.021C13.5249 14.9751 13.4067 14.9514 13.2873 14.9514C13.168 14.9514 13.0498 14.9751 12.9396 15.021C12.8294 15.0669 12.7294 15.1342 12.6453 15.219ZM18.663 5.3339C17.8069 4.47972 16.6469 4 15.4376 4C14.2283 4 13.0683 4.47972 12.2122 5.3339L10.062 7.48414C9.89395 7.65714 9.79996 7.88881 9.79996 8.12998C9.79996 8.37114 9.89395 8.60281 10.062 8.77581C10.1467 8.86081 10.2473 8.92826 10.3582 8.97427C10.469 9.02029 10.5878 9.04398 10.7078 9.04398C10.8278 9.04398 10.9466 9.02029 11.0575 8.97427C11.1683 8.92826 11.2689 8.86081 11.3536 8.77581L13.5039 6.62557C13.7558 6.36262 14.0577 6.15263 14.3918 6.00789C14.7259 5.86315 15.0856 5.78659 15.4497 5.78269C15.8138 5.77879 16.1751 5.84763 16.5122 5.98517C16.8494 6.12271 17.1557 6.3262 17.4132 6.58368C17.6707 6.84116 17.8741 7.14747 18.0117 7.48463C18.1492 7.82179 18.2181 8.18302 18.2142 8.54713C18.2103 8.91125 18.1337 9.27092 17.989 9.60505C17.8442 9.93919 17.6342 10.2411 17.3713 10.493L15.221 12.6432C15.0967 12.7721 15.0127 12.9345 14.9793 13.1104C14.946 13.2864 14.9648 13.4683 15.0334 13.6337C15.102 13.7991 15.2174 13.9409 15.3655 14.0417C15.5135 14.1424 15.6878 14.1977 15.8669 14.2008C15.9875 14.2014 16.1069 14.1775 16.2179 14.1304C16.3289 14.0834 16.4292 14.0143 16.5127 13.9273L18.663 11.7846C19.0868 11.3612 19.4231 10.8585 19.6525 10.305C19.8819 9.75159 20 9.15837 20 8.55927C20 7.96017 19.8819 7.36694 19.6525 6.81351C19.4231 6.26008 19.0868 5.75729 18.663 5.3339Z" fill="#05A8BC"/>
</g>
<defs>
<clipPath id="clip0_5_1514">
<rect width="24" height="24" fill="white"/>
</clipPath>
</defs>
</svg>
